<mxfile host="app.diagrams.net" agent="Mozilla/5.0 (Windows NT 10.0; Win64; x64) AppleWebKit/537.36 (KHTML, like Gecko) Chrome/131.0.0.0 Safari/537.36 Edg/131.0.0.0" version="24.9.0">
  <diagram name="หน้า-1" id="o2Sbrh1QQbN-E0hAO294">
    <mxGraphModel dx="1666" dy="747" grid="1" gridSize="10" guides="1" tooltips="1" connect="1" arrows="1" fold="1" page="1" pageScale="1" pageWidth="827" pageHeight="1169" math="0" shadow="0">
      <root>
        <mxCell id="0" />
        <mxCell id="1" parent="0" />
        <mxCell id="mFLegspGb5NbR7n3d0S--4" value="" style="edgeStyle=orthogonalEdgeStyle;rounded=0;orthogonalLoop=1;jettySize=auto;html=1;" edge="1" parent="1" source="0z7IkygkqPFVKzxq2r-W-2" target="mFLegspGb5NbR7n3d0S--1">
          <mxGeometry relative="1" as="geometry" />
        </mxCell>
        <mxCell id="0z7IkygkqPFVKzxq2r-W-2" value="Start" style="ellipse;whiteSpace=wrap;html=1;" parent="1" vertex="1">
          <mxGeometry x="354" y="20" width="120" height="80" as="geometry" />
        </mxCell>
        <mxCell id="0z7IkygkqPFVKzxq2r-W-12" value="End" style="ellipse;whiteSpace=wrap;html=1;" parent="1" vertex="1">
          <mxGeometry x="354" y="440" width="120" height="80" as="geometry" />
        </mxCell>
        <mxCell id="mFLegspGb5NbR7n3d0S--5" value="" style="edgeStyle=orthogonalEdgeStyle;rounded=0;orthogonalLoop=1;jettySize=auto;html=1;" edge="1" parent="1" source="mFLegspGb5NbR7n3d0S--1" target="mFLegspGb5NbR7n3d0S--2">
          <mxGeometry relative="1" as="geometry" />
        </mxCell>
        <mxCell id="mFLegspGb5NbR7n3d0S--1" value="รับค่าวันจากผู้ใช้" style="shape=parallelogram;perimeter=parallelogramPerimeter;whiteSpace=wrap;html=1;fixedSize=1;" vertex="1" parent="1">
          <mxGeometry x="317" y="140" width="194" height="60" as="geometry" />
        </mxCell>
        <mxCell id="mFLegspGb5NbR7n3d0S--6" value="" style="edgeStyle=orthogonalEdgeStyle;rounded=0;orthogonalLoop=1;jettySize=auto;html=1;" edge="1" parent="1" source="mFLegspGb5NbR7n3d0S--2" target="mFLegspGb5NbR7n3d0S--3">
          <mxGeometry relative="1" as="geometry" />
        </mxCell>
        <mxCell id="mFLegspGb5NbR7n3d0S--2" value="คำนวณ&lt;div&gt;day * 20 * 60 * 60&lt;/div&gt;" style="rounded=0;whiteSpace=wrap;html=1;" vertex="1" parent="1">
          <mxGeometry x="334" y="240" width="160" height="60" as="geometry" />
        </mxCell>
        <mxCell id="mFLegspGb5NbR7n3d0S--7" value="" style="edgeStyle=orthogonalEdgeStyle;rounded=0;orthogonalLoop=1;jettySize=auto;html=1;" edge="1" parent="1" source="mFLegspGb5NbR7n3d0S--3" target="0z7IkygkqPFVKzxq2r-W-12">
          <mxGeometry relative="1" as="geometry" />
        </mxCell>
        <mxCell id="mFLegspGb5NbR7n3d0S--3" value="แสดงผล" style="shape=parallelogram;perimeter=parallelogramPerimeter;whiteSpace=wrap;html=1;fixedSize=1;" vertex="1" parent="1">
          <mxGeometry x="317" y="340" width="194" height="60" as="geometry" />
        </mxCell>
      </root>
    </mxGraphModel>
  </diagram>
</mxfile>
